#define oval_fipple_width 75
#define oval_fipple_height 56
static unsigned char oval_fipple_bits[] = {
   0x00, 0x00, 0x00, 0x00, 0x00, 0x00, 0x00, 0x00, 0x00, 0x00, 0x00, 0x00,
   0x00, 0x00, 0x00, 0x00, 0x00, 0x00, 0x00, 0x00, 0x00, 0x00, 0x00, 0x00,
   0x00, 0x00, 0x00, 0x00, 0x00, 0x00, 0x00, 0x00, 0x00, 0x00, 0x00, 0x00,
   0x00, 0x00, 0x00, 0x00, 0x00, 0x00, 0x00, 0x00, 0x00, 0x00, 0x00, 0x00,
   0x00, 0x00, 0x00, 0x00, 0x00, 0x04, 0x00, 0x00, 0x00, 0x04, 0x00, 0x00,
   0x00, 0x00, 0x00, 0x24, 0x00, 0x11, 0x80, 0x04, 0x00, 0x00, 0x00, 0x00,
   0x00, 0x34, 0x00, 0x15, 0x80, 0x05, 0x00, 0x00, 0x00, 0x00, 0x00, 0xfc,
   0x7f, 0xd5, 0xff, 0x07, 0x00, 0x00, 0x00, 0x00, 0x00, 0x34, 0x00, 0x0a,
   0x80, 0x05, 0x00, 0x00, 0x00, 0x00, 0x00, 0x24, 0x00, 0x0a, 0x80, 0x04,
   0x00, 0x00, 0x00, 0x00, 0x00, 0x04, 0x00, 0x00, 0x00, 0x04, 0x00, 0x00,
   0x00, 0x00, 0x00, 0x04, 0x00, 0x00, 0x00, 0x04, 0x00, 0x00, 0x00, 0x00,
   0x00, 0x04, 0x00, 0x00, 0x00, 0x04, 0x00, 0x00, 0x00, 0x00, 0x00, 0x04,
   0x00, 0x00, 0x00, 0x04, 0x00, 0x00, 0x00, 0x00, 0x00, 0x04, 0x00, 0x00,
   0x00, 0x04, 0x00, 0x00, 0x00, 0x00, 0x00, 0x04, 0x00, 0x00, 0x00, 0x04,
   0x00, 0x00, 0x00, 0x00, 0x00, 0x04, 0x00, 0x00, 0x00, 0x04, 0x00, 0x00,
   0xff, 0x1f, 0xe0, 0xff, 0xff, 0xff, 0xff, 0x7f, 0x00, 0x00, 0x10, 0x00,
   0x38, 0x04, 0x00, 0x00, 0x00, 0x84, 0x03, 0x00, 0x38, 0x00, 0x06, 0x04,
   0x00, 0x00, 0x00, 0x04, 0x0c, 0x00, 0x7c, 0x00, 0x01, 0x04, 0x00, 0x00,
   0x00, 0x04, 0x10, 0x00, 0x10, 0x80, 0x00, 0x04, 0x00, 0x00, 0x00, 0x04,
   0x20, 0x00, 0x10, 0x40, 0x00, 0x04, 0x00, 0x00, 0x00, 0x04, 0x40, 0x00,
   0x10, 0x20, 0x00, 0x04, 0x00, 0x00, 0x00, 0x04, 0x80, 0x00, 0x10, 0x10,
   0x00, 0x04, 0x00, 0x00, 0x00, 0x04, 0x00, 0x01, 0x10, 0x08, 0x00, 0x04,
   0x00, 0x00, 0x00, 0x04, 0x00, 0x01, 0x10, 0x08, 0x00, 0x04, 0x00, 0x00,
   0x00, 0x04, 0x00, 0x02, 0x10, 0x0c, 0x00, 0x00, 0x00, 0x00, 0x00, 0x00,
   0x00, 0x02, 0x10, 0x04, 0x00, 0x00, 0x00, 0x00, 0x00, 0x00, 0x00, 0x04,
   0x10, 0x04, 0x00, 0x00, 0x00, 0x00, 0x00, 0x00, 0x00, 0x04, 0x48, 0x04,
   0x00, 0x04, 0x00, 0x00, 0x00, 0x04, 0x00, 0x04, 0x48, 0x02, 0x00, 0x04,
   0x00, 0x00, 0x00, 0x04, 0x00, 0x04, 0x78, 0x02, 0x00, 0x04, 0x00, 0x00,
   0x00, 0x04, 0x00, 0x04, 0x48, 0x02, 0x80, 0x3f, 0x00, 0x00, 0x80, 0x3f,
   0x00, 0x04, 0x48, 0x02, 0x00, 0x04, 0x00, 0x00, 0x00, 0x04, 0x00, 0x04,
   0x10, 0x02, 0x00, 0x04, 0x00, 0x00, 0x00, 0x04, 0x00, 0x04, 0x10, 0x04,
   0x00, 0x04, 0x00, 0x00, 0x00, 0x04, 0x00, 0x04, 0x10, 0x04, 0x00, 0x00,
   0x00, 0x00, 0x00, 0x00, 0x00, 0x04, 0x10, 0x04, 0x00, 0x00, 0x00, 0x00,
   0x00, 0x00, 0x00, 0x04, 0x10, 0x04, 0x00, 0x00, 0x00, 0x00, 0x00, 0x00,
   0x00, 0x02, 0x10, 0x08, 0x00, 0x00, 0x00, 0x00, 0x00, 0x00, 0x00, 0x02,
   0x10, 0x08, 0x00, 0x00, 0x00, 0x00, 0x00, 0x00, 0x00, 0x01, 0x10, 0x10,
   0x00, 0x00, 0x00, 0x00, 0x00, 0x00, 0x00, 0x01, 0x10, 0x20, 0x00, 0x00,
   0x00, 0x00, 0x00, 0x00, 0x80, 0x00, 0x10, 0x40, 0x00, 0x00, 0x00, 0x00,
   0x00, 0x00, 0x40, 0x00, 0x10, 0x80, 0x00, 0x00, 0x00, 0x00, 0x00, 0x00,
   0x20, 0x00, 0x7c, 0x00, 0x01, 0x00, 0x00, 0x00, 0x00, 0x00, 0x10, 0x00,
   0x38, 0x00, 0x06, 0x00, 0x00, 0x00, 0x00, 0x00, 0x0c, 0x00, 0x10, 0x00,
   0x18, 0x00, 0x00, 0x00, 0x00, 0x80, 0x03, 0x00, 0xff, 0x1f, 0xe0, 0xff,
   0xff, 0xff, 0xff, 0xff, 0x00, 0x00, 0x00, 0x00, 0x00, 0x00, 0x00, 0x00,
   0x00, 0x00, 0x00, 0x00, 0x00, 0x00, 0x00, 0x00, 0x00, 0x00, 0x00, 0x00,
   0x00, 0x00, 0x00, 0x00, 0x00, 0x00, 0x00, 0x00, 0x00, 0x00, 0x00, 0x00,
   0x00, 0x00, 0x00, 0x00, 0x00, 0x00, 0x00, 0x00, 0x00, 0x00, 0x00, 0x00,
   0x00, 0x00, 0x00, 0x00, 0x00, 0x00, 0x00, 0x00 };
