#define rect_fipple_width 75
#define rect_fipple_height 56
static unsigned char rect_fipple_bits[] = {
   0x00, 0x00, 0x00, 0x00, 0x00, 0x00, 0x00, 0x00, 0x00, 0x00, 0x00, 0x00,
   0x00, 0x00, 0x00, 0x00, 0x00, 0x00, 0x00, 0x00, 0x00, 0x00, 0x00, 0x00,
   0x00, 0x00, 0x00, 0x00, 0x00, 0x00, 0x00, 0x00, 0x00, 0x00, 0x00, 0x00,
   0x00, 0x00, 0x00, 0x00, 0x00, 0x00, 0x02, 0x00, 0x00, 0x00, 0x00, 0x00,
   0x08, 0x00, 0x00, 0x00, 0x02, 0x00, 0x00, 0x00, 0x00, 0x00, 0x08, 0x00,
   0x00, 0x00, 0x12, 0x00, 0x00, 0x11, 0x00, 0x00, 0x09, 0x00, 0x00, 0x00,
   0x1a, 0x00, 0x00, 0x15, 0x00, 0x00, 0x0b, 0x00, 0x00, 0x00, 0xfe, 0xff,
   0x7f, 0xd5, 0xff, 0xff, 0x0f, 0x00, 0x00, 0x00, 0x1a, 0x00, 0x00, 0x0a,
   0x00, 0x00, 0x0b, 0x00, 0x00, 0x00, 0x12, 0x00, 0x00, 0x0a, 0x00, 0x00,
   0x09, 0x00, 0x00, 0x00, 0x02, 0x00, 0x00, 0x00, 0x00, 0x00, 0x08, 0x00,
   0x00, 0x00, 0x02, 0x00, 0x00, 0x00, 0x00, 0x00, 0x08, 0x00, 0x00, 0x00,
   0x02, 0x00, 0x00, 0x00, 0x00, 0x00, 0x08, 0x00, 0x00, 0x00, 0x02, 0x00,
   0x00, 0x00, 0x00, 0x00, 0x08, 0x00, 0x00, 0x00, 0x02, 0x00, 0x00, 0x00,
   0x00, 0x00, 0x08, 0x00, 0x00, 0x00, 0x02, 0x00, 0x00, 0x00, 0x00, 0x00,
   0x08, 0x00, 0x00, 0x00, 0x00, 0x00, 0x00, 0x00, 0x00, 0x00, 0x00, 0x00,
   0xff, 0x1f, 0xfe, 0xff, 0xff, 0xff, 0xff, 0xff, 0x0f, 0x00, 0x10, 0x00,
   0x02, 0x00, 0x00, 0x00, 0x00, 0x00, 0x08, 0x00, 0x38, 0x00, 0x02, 0x00,
   0x00, 0x00, 0x00, 0x00, 0x08, 0x00, 0x7c, 0x00, 0x02, 0x00, 0x00, 0x00,
   0x00, 0x00, 0x08, 0x00, 0x10, 0x00, 0x02, 0x00, 0x00, 0x00, 0x00, 0x00,
   0x08, 0x00, 0x10, 0x00, 0x02, 0x00, 0x00, 0x00, 0x00, 0x00, 0x08, 0x00,
   0x10, 0x00, 0x02, 0x00, 0x00, 0x00, 0x00, 0x00, 0x08, 0x00, 0x10, 0x00,
   0x02, 0x00, 0x00, 0x00, 0x00, 0x00, 0x08, 0x00, 0x10, 0x00, 0x02, 0x00,
   0x00, 0x00, 0x00, 0x00, 0x08, 0x00, 0x10, 0x00, 0x02, 0x00, 0x00, 0x00,
   0x00, 0x00, 0x08, 0x00, 0x10, 0x00, 0x02, 0x00, 0x00, 0x00, 0x00, 0x00,
   0x08, 0x00, 0x10, 0x00, 0x02, 0x00, 0x00, 0x00, 0x00, 0x00, 0x08, 0x00,
   0x10, 0x00, 0x02, 0x00, 0x00, 0x00, 0x00, 0x00, 0x08, 0x00, 0x48, 0x00,
   0x02, 0x00, 0x00, 0x00, 0x00, 0x00, 0x08, 0x00, 0x48, 0x00, 0x02, 0x00,
   0x00, 0x00, 0x00, 0x00, 0x08, 0x00, 0x78, 0x00, 0x02, 0x00, 0x00, 0x00,
   0x00, 0x00, 0x08, 0x00, 0x48, 0x00, 0x02, 0x00, 0x00, 0x00, 0x00, 0x00,
   0x08, 0x00, 0x48, 0x00, 0x02, 0x00, 0x00, 0x00, 0x00, 0x00, 0x08, 0x00,
   0x10, 0x00, 0x02, 0x00, 0x00, 0x00, 0x00, 0x00, 0x08, 0x00, 0x10, 0x00,
   0x02, 0x00, 0x00, 0x00, 0x00, 0x00, 0x08, 0x00, 0x10, 0x00, 0x02, 0x00,
   0x00, 0x00, 0x00, 0x00, 0x08, 0x00, 0x10, 0x00, 0x02, 0x00, 0x00, 0x00,
   0x00, 0x00, 0x08, 0x00, 0x10, 0x00, 0x02, 0x00, 0x00, 0x00, 0x00, 0x00,
   0x08, 0x00, 0x10, 0x00, 0x02, 0x00, 0x00, 0x00, 0x00, 0x00, 0x08, 0x00,
   0x10, 0x00, 0x02, 0x00, 0x00, 0x00, 0x00, 0x00, 0x08, 0x00, 0x10, 0x00,
   0x02, 0x00, 0x00, 0x00, 0x00, 0x00, 0x08, 0x00, 0x10, 0x00, 0x02, 0x00,
   0x00, 0x00, 0x00, 0x00, 0x08, 0x00, 0x10, 0x00, 0x02, 0x00, 0x00, 0x00,
   0x00, 0x00, 0x08, 0x00, 0x10, 0x00, 0x02, 0x00, 0x00, 0x00, 0x00, 0x00,
   0x08, 0x00, 0x7c, 0x00, 0x02, 0x00, 0x00, 0x00, 0x00, 0x00, 0x08, 0x00,
   0x38, 0x00, 0x02, 0x00, 0x00, 0x00, 0x00, 0x00, 0x08, 0x00, 0x10, 0x00,
   0x02, 0x00, 0x00, 0x00, 0x00, 0x00, 0x08, 0x00, 0xff, 0x1f, 0xfe, 0xff,
   0xff, 0xff, 0xff, 0xff, 0x0f, 0x00, 0x00, 0x00, 0x00, 0x00, 0x00, 0x00,
   0x00, 0x00, 0x00, 0x00, 0x00, 0x00, 0x00, 0x00, 0x00, 0x00, 0x00, 0x00,
   0x00, 0x00, 0x00, 0x00, 0x00, 0x00, 0x00, 0x00, 0x00, 0x00, 0x00, 0x00,
   0x00, 0x00, 0x00, 0x00, 0x00, 0x00, 0x00, 0x00, 0x00, 0x00, 0x00, 0x00,
   0x00, 0x00, 0x00, 0x00, 0x00, 0x00, 0x00, 0x00 };
